<?xml version="1.0" encoding="utf-8"?>
<!-- Generator: Adobe Illustrator 28.1.0, SVG Export Plug-In . SVG Version: 6.00 Build 0)  -->
<svg version="1.1" id="Ebene_1" xmlns="http://www.w3.org/2000/svg" xmlns:xlink="http://www.w3.org/1999/xlink" x="0px" y="0px"
	 viewBox="0 0 229.75 225.87" style="enable-background:new 0 0 229.75 225.87;" xml:space="preserve">
<style type="text/css">
	.st0{stroke:#000000;stroke-miterlimit:10;}
	.st1{fill:#FFFFFF;}
	.st2{fill:none;stroke:#000000;stroke-width:25;stroke-miterlimit:10;}
</style>
<g>
	<path class="st0" d="M190.93,116.48C149.84,72.9,99.97,65.19,83.88,80.54c-15.66,14.93-10.2,62.04,27.17,103.73
		C137.68,161.67,164.3,139.07,190.93,116.48z"/>
	<ellipse transform="matrix(0.7071 -0.7071 0.7071 0.7071 -62.7803 151.8985)" cx="151.97" cy="151.73" rx="52.92" ry="39.14"/>
	
		<ellipse transform="matrix(0.7071 -0.7071 0.7071 0.7071 -63.3159 154.6057)" class="st1" cx="154.97" cy="153.73" rx="33.91" ry="25.08"/>
	<ellipse transform="matrix(0.7071 -0.7071 0.7071 0.7071 -63.3159 154.6057)" cx="154.97" cy="153.73" rx="16.16" ry="11.96"/>
	<path class="st2" d="M124.46,121.12L60,56.66L124.46,121.12z"/>
	<circle class="st2" cx="45.13" cy="63.27" r="6.2"/>
	<circle class="st2" cx="66.85" cy="44.18" r="6.2"/>
</g>
</svg>
